{
  "source": "C:\\Users\\Peter\\Desktop\\stuff\\MIUN\\quantitative_research\\video_compression\\videos\\BVI-HD\\BVI-HD_CDVL_videos\\ORIG\\CloudsZoom_1920x1080_60fps.mp4",
  "output": "C:\\Users\\Peter\\Desktop\\stuff\\MIUN\\quantitative_research\\video_compression\\compressed_videos\\BVI-HD\\hevc\\2.5\\CloudsZoom_1920x1080_60fps_hevc.mp4",
  "codec": "hevc",
  "ok": "Input #0, mov,mp4,m4a,3gp,3g2,mj2, from 'C:\\Users\\Peter\\Desktop\\stuff\\MIUN\\quantitative_research\\video_compression\\videos\\BVI-HD\\BVI-HD_CDVL_videos\\ORIG\\CloudsZoom_1920x1080_60fps.mp4':\n  Metadata:\n    major_brand     : isom\n    minor_version   : 512\n    compatible_brands: isomiso2avc1mp41\n    encoder         : Lavf54.28.101\n  Duration: 00:00:05.00, start: 0.000000, bitrate: 32589 kb/s\n  Stream #0:0[0x1](und): Video: h264 (High 4:4:4 Predictive) (avc1 / 0x31637661), yuv420p(progressive), 1920x1080, 32586 kb/s, 60 fps, 60 tbr, 60 tbn (default)\n    Metadata:\n      handler_name    : VideoHandler\n      vendor_id       : [0][0][0][0]\n[out#0/mp4 @ 0000025eff6b4e40] Codec AVOption b:a (set bitrate (in bits/s)) has not been used for any stream. The most likely reason is either wrong type (e.g. a video option with no video streams) or that it is a private option of some decoder which was not actually used for any stream.\nStream mapping:\n  Stream #0:0 -> #0:0 (h264 (native) -> hevc (libx265))\nPress [q] to stop, [?] for help\n[libx265 @ 0000025effadf040] Unknown option: \"aq-mode.\nx265 [info]: HEVC encoder version 4.1+190-8f11c33ac\nx265 [info]: build info [Windows][GCC 15.1.0][64 bit] 10bit\nx265 [info]: using cpu capabilities: MMX2 SSE2Fast LZCNT SSSE3 SSE4.2 AVX FMA3 BMI2 AVX2\nx265 [info]: Main 10 profile, Level-4.1 (Main tier)\nx265 [info]: Thread pool created using 12 threads\nx265 [info]: Slices                              : 1\nx265 [info]: frame threads / pool features       : 3 / wpp(17 rows)\nx265 [info]: Coding QT: max CU size, min CU size : 64 / 8\nx265 [info]: Residual QT: max TU size, max depth : 32 / 1 inter / 1 intra\nx265 [info]: ME / range / subpel / merge         : star / 57 / 3 / 3\nx265 [info]: Keyframe min / max / scenecut / bias  : 25 / 250 / 40 / 5.00 \nx265 [info]: Lookahead / bframes / badapt        : 25 / 4 / 2\nx265 [info]: b-pyramid / weightp / weightb       : 1 / 1 / 0\nx265 [info]: References / ref-limit  cu / depth  : 4 / on / on\nx265 [info]: AQ: mode / str / qg-size / cu-tree  : 2 / 1.0 / 32 / 1\nx265 [info]: Rate Control / qCompress            : ABR-2500 kbps / 0.60\nx265 [info]: VBV/HRD buffer / max-rate / init    : 2500 / 2500 / 0.750\nx265 [info]: tools: rect limit-modes rd=4 psy-rd=2.00 rdoq=2 psy-rdoq=1.00\nx265 [info]: tools: rskip mode=1 signhide tmvp strong-intra-smoothing lslices=4\nx265 [info]: tools: deblock sao dhdr10-info\nOutput #0, mp4, to 'C:\\Users\\Peter\\Desktop\\stuff\\MIUN\\quantitative_research\\video_compression\\compressed_videos\\BVI-HD\\hevc\\2.5\\CloudsZoom_1920x1080_60fps_hevc.mp4':\n  Metadata:\n    major_brand     : isom\n    minor_version   : 512\n    compatible_brands: isomiso2avc1mp41\n    encoder         : Lavf62.3.100\n  Stream #0:0(und): Video: hevc (hev1 / 0x31766568), yuv420p10le(tv, progressive), 1920x1080, q=2-31, 2500 kb/s, 60 fps, 15360 tbn (default)\n    Metadata:\n      encoder         : Lavc62.11.100 libx265\n      handler_name    : VideoHandler\n      vendor_id       : [0][0][0][0]\n    Side data:\n      cpb: bitrate max/min/avg: 2500000/0/2500000 buffer size: 2500000 vbv_delay: N/A\nframe=    0 fps=0.0 q=0.0 size=       0KiB time=N/A bitrate=N/A speed=N/A elapsed=0:00:00.51    \nframe=    0 fps=0.0 q=0.0 size=       0KiB time=N/A bitrate=N/A speed=N/A elapsed=0:00:01.03    \nframe=    0 fps=0.0 q=0.0 size=       0KiB time=N/A bitrate=N/A speed=N/A elapsed=0:00:01.54    \nframe=    0 fps=0.0 q=0.0 size=       0KiB time=N/A bitrate=N/A speed=N/A elapsed=0:00:02.07    \nframe=    0 fps=0.0 q=0.0 size=       0KiB time=N/A bitrate=N/A speed=N/A elapsed=0:00:02.57    \nframe=    3 fps=1.0 q=39.0 size=       0KiB time=00:00:00.01 bitrate=  21.1kbits/s speed=0.00538x elapsed=0:00:03.09    \nframe=    4 fps=1.1 q=39.0 size=       0KiB time=00:00:00.03 bitrate=  10.6kbits/s speed=0.00921x elapsed=0:00:03.61    \nframe=    5 fps=1.2 q=39.0 size=       0KiB time=00:00:00.05 bitrate=   7.0kbits/s speed=0.0121x elapsed=0:00:04.13    \nframe=    7 fps=1.5 q=37.1 size=       0KiB time=00:00:00.08 bitrate=   4.2kbits/s speed=0.0179x elapsed=0:00:04.66    \nframe=    8 fps=1.5 q=34.9 size=       0KiB time=00:00:00.10 bitrate=   3.5kbits/s speed=0.0193x elapsed=0:00:05.17    \nframe=    9 fps=1.6 q=35.8 size=       0KiB time=00:00:00.11 bitrate=   3.0kbits/s speed=0.0205x elapsed=0:00:05.68    \nframe=   11 fps=1.8 q=31.2 size=       0KiB time=00:00:00.15 bitrate=   2.3kbits/s speed=0.0242x elapsed=0:00:06.20    \nframe=   12 fps=1.8 q=26.2 size=       0KiB time=00:00:00.16 bitrate=   2.1kbits/s speed=0.0248x elapsed=0:00:06.72    \nframe=   14 fps=1.9 q=31.8 size=       0KiB time=00:00:00.20 bitrate=   1.8kbits/s speed=0.0276x elapsed=0:00:07.24    \nframe=   14 fps=1.8 q=31.8 size=       0KiB time=00:00:00.20 bitrate=   1.8kbits/s speed=0.0257x elapsed=0:00:07.76    \nframe=   15 fps=1.8 q=26.4 size=       0KiB time=00:00:00.21 bitrate=   1.6kbits/s speed=0.0261x elapsed=0:00:08.28    \nframe=   16 fps=1.8 q=26.7 size=       0KiB time=00:00:00.23 bitrate=   1.5kbits/s speed=0.0265x elapsed=0:00:08.79    \nframe=   17 fps=1.8 q=21.6 size=       0KiB time=00:00:00.25 bitrate=   1.4kbits/s speed=0.0268x elapsed=0:00:09.31    \nframe=   18 fps=1.8 q=25.4 size=       0KiB time=00:00:00.26 bitrate=   1.3kbits/s speed=0.0271x elapsed=0:00:09.82    \nframe=   19 fps=1.8 q=27.0 size=       0KiB time=00:00:00.28 bitrate=   1.2kbits/s speed=0.0274x elapsed=0:00:10.34    \nframe=   19 fps=1.7 q=27.0 size=       0KiB time=00:00:00.28 bitrate=   1.2kbits/s speed=0.0261x elapsed=0:00:10.86    \nframe=   21 fps=1.8 q=21.3 size=       0KiB time=00:00:00.31 bitrate=   1.1kbits/s speed=0.0278x elapsed=0:00:11.37    \nframe=   21 fps=1.8 q=21.3 size=       0KiB time=00:00:00.31 bitrate=   1.1kbits/s speed=0.0266x elapsed=0:00:11.89    \nframe=   22 fps=1.8 q=17.5 size=       0KiB time=00:00:00.33 bitrate=   1.1kbits/s speed=0.0268x elapsed=0:00:12.41    \nframe=   23 fps=1.8 q=21.8 size=       0KiB time=00:00:00.35 bitrate=   1.0kbits/s speed=0.027x elapsed=0:00:12.94    \nframe=   24 fps=1.8 q=20.6 size=       0KiB time=00:00:00.36 bitrate=   1.0kbits/s speed=0.0272x elapsed=0:00:13.45    \nframe=   24 fps=1.7 q=20.6 size=       0KiB time=00:00:00.36 bitrate=   1.0kbits/s speed=0.0263x elapsed=0:00:13.96    \nframe=   25 fps=1.7 q=20.1 size=       0KiB time=00:00:00.38 bitrate=   0.9kbits/s speed=0.0265x elapsed=0:00:14.48    \nframe=   26 fps=1.7 q=19.5 size=       0KiB time=00:00:00.40 bitrate=   0.9kbits/s speed=0.0267x elapsed=0:00:14.99    \nframe=   27 fps=1.7 q=16.0 size=       0KiB time=00:00:00.41 bitrate=   0.8kbits/s speed=0.0269x elapsed=0:00:15.51    \nframe=   27 fps=1.7 q=16.0 size=       0KiB time=00:00:00.41 bitrate=   0.8kbits/s speed=0.026x elapsed=0:00:16.04    \nframe=   28 fps=1.7 q=20.4 size=       0KiB time=00:00:00.43 bitrate=   0.8kbits/s speed=0.0261x elapsed=0:00:16.57    \nframe=   29 fps=1.7 q=19.6 size=       0KiB time=00:00:00.45 bitrate=   0.8kbits/s speed=0.0263x elapsed=0:00:17.09    \nframe=   29 fps=1.6 q=19.6 size=       0KiB time=00:00:00.45 bitrate=   0.8kbits/s speed=0.0255x elapsed=0:00:17.61    \nframe=   30 fps=1.7 q=19.2 size=       0KiB time=00:00:00.46 bitrate=   0.8kbits/s speed=0.0257x elapsed=0:00:18.16    \nframe=   30 fps=1.6 q=19.2 size=       0KiB time=00:00:00.46 bitrate=   0.8kbits/s speed=0.025x elapsed=0:00:18.66    \nframe=   31 fps=1.6 q=20.5 size=       0KiB time=00:00:00.48 bitrate=   0.7kbits/s speed=0.0252x elapsed=0:00:19.18    \nframe=   31 fps=1.6 q=20.5 size=       0KiB time=00:00:00.48 bitrate=   0.7kbits/s speed=0.0245x elapsed=0:00:19.71    \nframe=   32 fps=1.6 q=14.8 size=       0KiB time=00:00:00.50 bitrate=   0.7kbits/s speed=0.0247x elapsed=0:00:20.21    \nframe=   33 fps=1.6 q=20.4 size=       0KiB time=00:00:00.51 bitrate=   0.7kbits/s speed=0.0249x elapsed=0:00:20.73    \nframe=   34 fps=1.6 q=19.7 size=       0KiB time=00:00:00.53 bitrate=   0.7kbits/s speed=0.0251x elapsed=0:00:21.26    \nframe=   34 fps=1.6 q=19.7 size=       0KiB time=00:00:00.53 bitrate=   0.7kbits/s speed=0.0245x elapsed=0:00:21.76    \nframe=   34 fps=1.5 q=19.7 size=       0KiB time=00:00:00.53 bitrate=   0.7kbits/s speed=0.0239x elapsed=0:00:22.29    \nframe=   35 fps=1.5 q=19.5 size=       0KiB time=00:00:00.55 bitrate=   0.6kbits/s speed=0.0241x elapsed=0:00:22.80    \nframe=   35 fps=1.5 q=19.5 size=       0KiB time=00:00:00.55 bitrate=   0.6kbits/s speed=0.0236x elapsed=0:00:23.32    \nframe=   35 fps=1.5 q=19.5 size=       0KiB time=00:00:00.55 bitrate=   0.6kbits/s speed=0.0231x elapsed=0:00:23.84    \nframe=   36 fps=1.5 q=20.0 size=       0KiB time=00:00:00.56 bitrate=   0.6kbits/s speed=0.0233x elapsed=0:00:24.36    \nframe=   36 fps=1.4 q=20.0 size=       0KiB time=00:00:00.56 bitrate=   0.6kbits/s speed=0.0228x elapsed=0:00:24.87    \nframe=   37 fps=1.5 q=15.2 size=       0KiB time=00:00:00.58 bitrate=   0.6kbits/s speed=0.023x elapsed=0:00:25.38    \nframe=   39 fps=1.5 q=20.3 size=       0KiB time=00:00:00.61 bitrate=   0.6kbits/s speed=0.0238x elapsed=0:00:25.90    \nframe=   39 fps=1.5 q=20.3 size=       0KiB time=00:00:00.61 bitrate=   0.6kbits/s speed=0.0233x elapsed=0:00:26.44    \nframe=   40 fps=1.5 q=19.7 size=       0KiB time=00:00:00.63 bitrate=   0.6kbits/s speed=0.0235x elapsed=0:00:26.97    \nframe=   41 fps=1.5 q=19.9 size=       0KiB time=00:00:00.65 bitrate=   0.5kbits/s speed=0.0236x elapsed=0:00:27.48    \nframe=   42 fps=1.5 q=15.0 size=       0KiB time=00:00:00.66 bitrate=   0.5kbits/s speed=0.0238x elapsed=0:00:28.03    \nframe=   43 fps=1.5 q=20.0 size=       0KiB time=00:00:00.68 bitrate=   0.5kbits/s speed=0.0239x elapsed=0:00:28.57    \nframe=   43 fps=1.5 q=20.0 size=       0KiB time=00:00:00.68 bitrate=   0.5kbits/s speed=0.0235x elapsed=0:00:29.07    \nframe=   44 fps=1.5 q=20.1 size=       0KiB time=00:00:00.70 bitrate=   0.5kbits/s speed=0.0236x elapsed=0:00:29.60    \nframe=   44 fps=1.5 q=20.1 size=       0KiB time=00:00:00.70 bitrate=   0.5kbits/s speed=0.0232x elapsed=0:00:30.12    \nframe=   44 fps=1.4 q=20.1 size=       0KiB time=00:00:00.70 bitrate=   0.5kbits/s speed=0.0228x elapsed=0:00:30.65    \nframe=   44 fps=1.4 q=20.1 size=       0KiB time=00:00:00.70 bitrate=   0.5kbits/s speed=0.0225x elapsed=0:00:31.17    \nframe=   45 fps=1.4 q=19.3 size=       0KiB time=00:00:00.71 bitrate=   0.5kbits/s speed=0.0226x elapsed=0:00:31.69    \nframe=   45 fps=1.4 q=19.3 size=       0KiB time=00:00:00.71 bitrate=   0.5kbits/s speed=0.0223x elapsed=0:00:32.20    \nframe=   47 fps=1.4 q=15.2 size=       0KiB time=00:00:00.75 bitrate=   0.5kbits/s speed=0.0229x elapsed=0:00:32.71    \nframe=   47 fps=1.4 q=15.2 size=       0KiB time=00:00:00.75 bitrate=   0.5kbits/s speed=0.0226x elapsed=0:00:33.23    \nframe=   47 fps=1.4 q=15.2 size=       0KiB time=00:00:00.75 bitrate=   0.5kbits/s speed=0.0222x elapsed=0:00:33.74    \nframe=   47 fps=1.4 q=15.2 size=       0KiB time=00:00:00.75 bitrate=   0.5kbits/s speed=0.0219x elapsed=0:00:34.27    \nframe=   48 fps=1.4 q=19.4 size=       0KiB time=00:00:00.76 bitrate=   0.5kbits/s speed=0.022x elapsed=0:00:34.77    \nframe=   49 fps=1.4 q=19.7 size=       0KiB time=00:00:00.78 bitrate=   0.4kbits/s speed=0.0222x elapsed=0:00:35.30    \nframe=   49 fps=1.4 q=19.7 size=       0KiB time=00:00:00.78 bitrate=   0.4kbits/s speed=0.0218x elapsed=0:00:35.85    \nframe=   49 fps=1.3 q=19.7 size=       0KiB time=00:00:00.78 bitrate=   0.4kbits/s speed=0.0215x elapsed=0:00:36.36    \nframe=   49 fps=1.3 q=19.7 size=       0KiB time=00:00:00.78 bitrate=   0.4kbits/s speed=0.0212x elapsed=0:00:36.89    \nframe=   50 fps=1.3 q=19.6 size=       0KiB time=00:00:00.80 bitrate=   0.4kbits/s speed=0.0214x elapsed=0:00:37.41    \nframe=   50 fps=1.3 q=19.6 size=       0KiB time=00:00:00.80 bitrate=   0.4kbits/s speed=0.0211x elapsed=0:00:37.92    \nframe=   51 fps=1.3 q=19.5 size=       0KiB time=00:00:00.80 bitrate=   0.4kbits/s speed=0.0208x elapsed=0:00:38.44    \nframe=   51 fps=1.3 q=19.5 size=       0KiB time=00:00:00.81 bitrate=   0.4kbits/s speed=0.021x elapsed=0:00:38.96    \nframe=   51 fps=1.3 q=19.5 size=       0KiB time=00:00:00.81 bitrate=   0.4kbits/s speed=0.0207x elapsed=0:00:39.48    \nframe=   52 fps=1.3 q=14.6 size=       0KiB time=00:00:00.83 bitrate=   0.4kbits/s speed=0.0208x elapsed=0:00:40.00    \nframe=   52 fps=1.3 q=14.6 size=       0KiB time=00:00:00.83 bitrate=   0.4kbits/s speed=0.0206x elapsed=0:00:40.52    \nframe=   53 fps=1.3 q=19.5 size=       0KiB time=00:00:00.85 bitrate=   0.4kbits/s speed=0.0207x elapsed=0:00:41.03    \nframe=   53 fps=1.3 q=19.5 size=       0KiB time=00:00:00.85 bitrate=   0.4kbits/s speed=0.0205x elapsed=0:00:41.55    \nframe=   54 fps=1.3 q=21.1 size=       0KiB time=00:00:00.86 bitrate=   0.4kbits/s speed=0.0206x elapsed=0:00:42.10    \nframe=   54 fps=1.3 q=21.1 size=       0KiB time=00:00:00.86 bitrate=   0.4kbits/s speed=0.0203x elapsed=0:00:42.60    \nframe=   54 fps=1.3 q=21.1 size=       0KiB time=00:00:00.86 bitrate=   0.4kbits/s speed=0.0201x elapsed=0:00:43.13    \nframe=   54 fps=1.2 q=21.1 size=       0KiB time=00:00:00.86 bitrate=   0.4kbits/s speed=0.0199x elapsed=0:00:43.65    \nframe=   54 fps=1.2 q=21.1 size=       0KiB time=00:00:00.86 bitrate=   0.4kbits/s speed=0.0196x elapsed=0:00:44.17    \nframe=   54 fps=1.2 q=21.1 size=       0KiB time=00:00:00.86 bitrate=   0.4kbits/s speed=0.0194x elapsed=0:00:44.70    \nframe=   55 fps=1.2 q=20.0 size=       0KiB time=00:00:00.88 bitrate=   0.4kbits/s speed=0.0195x elapsed=0:00:45.25    \nframe=   55 fps=1.2 q=20.0 size=       0KiB time=00:00:00.88 bitrate=   0.4kbits/s speed=0.0193x elapsed=0:00:45.78    \nframe=   56 fps=1.2 q=19.9 size=       0KiB time=00:00:00.90 bitrate=   0.4kbits/s speed=0.0194x elapsed=0:00:46.29    \nframe=   57 fps=1.2 q=14.8 size=       0KiB time=00:00:00.91 bitrate=   0.4kbits/s speed=0.0196x elapsed=0:00:46.84    \nframe=   57 fps=1.2 q=14.8 size=       0KiB time=00:00:00.91 bitrate=   0.4kbits/s speed=0.0193x elapsed=0:00:47.38    \nframe=   58 fps=1.2 q=19.5 size=       0KiB time=00:00:00.93 bitrate=   0.4kbits/s speed=0.0195x elapsed=0:00:47.92    \nframe=   58 fps=1.2 q=19.5 size=       0KiB time=00:00:00.93 bitrate=   0.4kbits/s speed=0.0192x elapsed=0:00:48.49    \nframe=   59 fps=1.2 q=21.3 size=       0KiB time=00:00:00.95 bitrate=   0.4kbits/s speed=0.0194x elapsed=0:00:49.01    \nframe=   59 fps=1.2 q=21.3 size=       0KiB time=00:00:00.95 bitrate=   0.4kbits/s speed=0.0192x elapsed=0:00:49.54    \nframe=   59 fps=1.2 q=21.3 size=       0KiB time=00:00:00.95 bitrate=   0.4kbits/s speed=0.019x elapsed=0:00:50.09    \nframe=   59 fps=1.2 q=21.3 size=       0KiB time=00:00:00.95 bitrate=   0.4kbits/s speed=0.0188x elapsed=0:00:50.61    \nframe=   59 fps=1.2 q=21.3 size=       0KiB time=00:00:00.95 bitrate=   0.4kbits/s speed=0.0186x elapsed=0:00:51.12    \nframe=   60 fps=1.2 q=20.1 size=       0KiB time=00:00:00.96 bitrate=   0.4kbits/s speed=0.0187x elapsed=0:00:51.64    \nframe=   61 fps=1.2 q=20.0 size=       0KiB time=00:00:00.98 bitrate=   0.4kbits/s speed=0.0189x elapsed=0:00:52.16    \nframe=   61 fps=1.2 q=20.0 size=       0KiB time=00:00:00.98 bitrate=   0.4kbits/s speed=0.0187x elapsed=0:00:52.66    \nframe=   62 fps=1.2 q=14.8 size=       0KiB time=00:00:01.00 bitrate=   0.4kbits/s speed=0.0188x elapsed=0:00:53.19    \nframe=   62 fps=1.2 q=14.8 size=       0KiB time=00:00:01.00 bitrate=   0.4kbits/s speed=0.0186x elapsed=0:00:53.76    \nframe=   63 fps=1.2 q=19.6 size=     256KiB time=00:00:01.01 bitrate=2063.1kbits/s speed=0.0187x elapsed=0:00:54.28    \nframe=   63 fps=1.1 q=19.6 size=     256KiB time=00:00:01.01 bitrate=2063.1kbits/s speed=0.0186x elapsed=0:00:54.80    \nframe=   64 fps=1.2 q=20.1 size=     256KiB time=00:00:01.03 bitrate=2029.8kbits/s speed=0.0187x elapsed=0:00:55.32    \nframe=   64 fps=1.1 q=20.1 size=     256KiB time=00:00:01.03 bitrate=2029.8kbits/s speed=0.0185x elapsed=0:00:55.84    \nframe=   64 fps=1.1 q=20.1 size=     256KiB time=00:00:01.03 bitrate=2029.8kbits/s speed=0.0183x elapsed=0:00:56.36    \nframe=   64 fps=1.1 q=20.1 size=     256KiB time=00:00:01.03 bitrate=2029.8kbits/s speed=0.0182x elapsed=0:00:56.88    \nframe=   65 fps=1.1 q=19.9 size=     256KiB time=00:00:01.05 bitrate=1997.6kbits/s speed=0.0183x elapsed=0:00:57.40    \nframe=   65 fps=1.1 q=19.9 size=     256KiB time=00:00:01.05 bitrate=1997.6kbits/s speed=0.0181x elapsed=0:00:57.95    \nframe=   66 fps=1.1 q=20.9 size=     256KiB time=00:00:01.06 bitrate=1966.4kbits/s speed=0.0182x elapsed=0:00:58.46    \nframe=   66 fps=1.1 q=20.9 size=     256KiB time=00:00:01.06 bitrate=1966.4kbits/s speed=0.0181x elapsed=0:00:59.00    \nframe=   67 fps=1.1 q=15.1 size=     256KiB time=00:00:01.08 bitrate=1936.2kbits/s speed=0.0182x elapsed=0:00:59.54    \nframe=   68 fps=1.1 q=19.5 size=     256KiB time=00:00:01.10 bitrate=1906.8kbits/s speed=0.0183x elapsed=0:01:00.06    \nframe=   68 fps=1.1 q=19.5 size=     256KiB time=00:00:01.10 bitrate=1906.8kbits/s speed=0.0182x elapsed=0:01:00.60    \nframe=   69 fps=1.1 q=19.9 size=     256KiB time=00:00:01.11 bitrate=1878.4kbits/s speed=0.0183x elapsed=0:01:01.12    \nframe=   69 fps=1.1 q=19.9 size=     256KiB time=00:00:01.11 bitrate=1878.4kbits/s speed=0.0181x elapsed=0:01:01.65    \nframe=   69 fps=1.1 q=19.9 size=     256KiB time=00:00:01.11 bitrate=1878.4kbits/s speed=0.018x elapsed=0:01:02.18    \nframe=   69 fps=1.1 q=19.9 size=     256KiB time=00:00:01.11 bitrate=1878.4kbits/s speed=0.0178x elapsed=0:01:02.70    \nframe=   70 fps=1.1 q=19.6 size=     256KiB time=00:00:01.13 bitrate=1850.7kbits/s speed=0.0179x elapsed=0:01:03.23    \nframe=   71 fps=1.1 q=20.5 size=     256KiB time=00:00:01.15 bitrate=1823.9kbits/s speed=0.018x elapsed=0:01:03.75    \nframe=   72 fps=1.1 q=14.8 size=     256KiB time=00:00:01.16 bitrate=1797.9kbits/s speed=0.0181x elapsed=0:01:04.28    \nframe=   72 fps=1.1 q=14.8 size=     256KiB time=00:00:01.16 bitrate=1797.9kbits/s speed=0.018x elapsed=0:01:04.81    \nframe=   72 fps=1.1 q=14.8 size=     256KiB time=00:00:01.16 bitrate=1797.9kbits/s speed=0.0179x elapsed=0:01:05.34    \nframe=   72 fps=1.1 q=14.8 size=     256KiB time=00:00:01.16 bitrate=1797.9kbits/s speed=0.0177x elapsed=0:01:05.88    \nframe=   73 fps=1.1 q=19.2 size=     256KiB time=00:00:01.18 bitrate=1772.5kbits/s speed=0.0178x elapsed=0:01:06.41    \nframe=   73 fps=1.1 q=19.2 size=     256KiB time=00:00:01.18 bitrate=1772.5kbits/s speed=0.0177x elapsed=0:01:06.94    \nframe=   73 fps=1.1 q=19.2 size=     256KiB time=00:00:01.18 bitrate=1772.5kbits/s speed=0.0175x elapsed=0:01:07.48    \nframe=   74 fps=1.1 q=20.3 size=     256KiB time=00:00:01.20 bitrate=1747.9kbits/s speed=0.0176x elapsed=0:01:08.00    \nframe=   74 fps=1.1 q=20.3 size=     256KiB time=00:00:01.20 bitrate=1747.9kbits/s speed=0.0175x elapsed=0:01:08.52    \nframe=   76 fps=1.1 q=19.8 size=     256KiB time=00:00:01.23 bitrate=1700.7kbits/s speed=0.0179x elapsed=0:01:09.03    \nframe=   77 fps=1.1 q=14.7 size=     256KiB time=00:00:01.25 bitrate=1678.0kbits/s speed=0.018x elapsed=0:01:09.55    \nframe=   78 fps=1.1 q=19.3 size=     256KiB time=00:00:01.26 bitrate=1655.9kbits/s speed=0.0181x elapsed=0:01:10.05    \nframe=   79 fps=1.1 q=20.2 size=     256KiB time=00:00:01.28 bitrate=1634.4kbits/s speed=0.0182x elapsed=0:01:10.57    \nframe=   80 fps=1.1 q=20.2 size=     256KiB time=00:00:01.30 bitrate=1613.5kbits/s speed=0.0183x elapsed=0:01:11.09    \nframe=   81 fps=1.1 q=20.0 size=     256KiB time=00:00:01.31 bitrate=1593.0kbits/s speed=0.0184x elapsed=0:01:11.61    \nframe=   82 fps=1.1 q=15.3 size=     256KiB time=00:00:01.33 bitrate=1573.1kbits/s speed=0.0185x elapsed=0:01:12.12    \nframe=   84 fps=1.2 q=21.0 size=     256KiB time=00:00:01.36 bitrate=1534.8kbits/s speed=0.0188x elapsed=0:01:12.64    \nframe=   84 fps=1.1 q=21.0 size=     256KiB time=00:00:01.36 bitrate=1534.8kbits/s speed=0.0187x elapsed=0:01:13.15    \nframe=   84 fps=1.1 q=21.0 size=     256KiB time=00:00:01.36 bitrate=1534.8kbits/s speed=0.0186x elapsed=0:01:13.67    \nframe=   85 fps=1.1 q=20.3 size=     256KiB time=00:00:01.38 bitrate=1516.3kbits/s speed=0.0186x elapsed=0:01:14.19    \nframe=   86 fps=1.2 q=20.8 size=     256KiB time=00:00:01.40 bitrate=1498.2kbits/s speed=0.0187x elapsed=0:01:14.70    \nframe=   87 fps=1.2 q=14.4 size=     256KiB time=00:00:01.41 bitrate=1480.6kbits/s speed=0.0188x elapsed=0:01:15.22    \nframe=   89 fps=1.2 q=21.1 size=     256KiB time=00:00:01.45 bitrate=1446.6kbits/s speed=0.0191x elapsed=0:01:15.73    \nframe=   89 fps=1.2 q=21.1 size=     256KiB time=00:00:01.45 bitrate=1446.6kbits/s speed=0.019x elapsed=0:01:16.25    \nframe=   90 fps=1.2 q=20.5 size=     256KiB time=00:00:01.46 bitrate=1430.1kbits/s speed=0.0191x elapsed=0:01:16.76    \nframe=   92 fps=1.2 q=14.8 size=     256KiB time=00:00:01.50 bitrate=1398.3kbits/s speed=0.0194x elapsed=0:01:17.28    \nframe=   94 fps=1.2 q=21.1 size=     256KiB time=00:00:01.53 bitrate=1367.9kbits/s speed=0.0197x elapsed=0:01:17.80    \nframe=   94 fps=1.2 q=21.1 size=     256KiB time=00:00:01.53 bitrate=1367.9kbits/s speed=0.0196x elapsed=0:01:18.30    \nframe=   95 fps=1.2 q=21.3 size=     256KiB time=00:00:01.55 bitrate=1353.2kbits/s speed=0.0197x elapsed=0:01:18.82    \nframe=   96 fps=1.2 q=21.2 size=     256KiB time=00:00:01.56 bitrate=1338.8kbits/s speed=0.0197x elapsed=0:01:19.35    \nframe=   97 fps=1.2 q=14.7 size=     256KiB time=00:00:01.58 bitrate=1324.7kbits/s speed=0.0198x elapsed=0:01:19.87    \nframe=   98 fps=1.2 q=19.6 size=     256KiB time=00:00:01.60 bitrate=1310.9kbits/s speed=0.0199x elapsed=0:01:20.40    \nframe=   99 fps=1.2 q=21.2 size=     256KiB time=00:00:01.61 bitrate=1297.4kbits/s speed=0.02x elapsed=0:01:20.93    \nframe=   99 fps=1.2 q=21.2 size=     256KiB time=00:00:01.61 bitrate=1297.4kbits/s speed=0.0198x elapsed=0:01:21.46    \nframe=   99 fps=1.2 q=21.2 size=     256KiB time=00:00:01.61 bitrate=1297.4kbits/s speed=0.0197x elapsed=0:01:21.98    \nframe=  100 fps=1.2 q=21.7 size=     256KiB time=00:00:01.63 bitrate=1284.2kbits/s speed=0.0198x elapsed=0:01:22.49    \nframe=  100 fps=1.2 q=21.7 size=     256KiB time=00:00:01.63 bitrate=1284.2kbits/s speed=0.0197x elapsed=0:01:23.01    \nframe=  101 fps=1.2 q=20.7 size=     256KiB time=00:00:01.65 bitrate=1271.2kbits/s speed=0.0198x elapsed=0:01:23.53    \nframe=  102 fps=1.2 q=14.8 size=     256KiB time=00:00:01.66 bitrate=1258.5kbits/s speed=0.0198x elapsed=0:01:24.05    \nframe=  104 fps=1.2 q=22.5 size=     256KiB time=00:00:01.70 bitrate=1233.8kbits/s speed=0.0201x elapsed=0:01:24.55    \nframe=  104 fps=1.2 q=22.5 size=     256KiB time=00:00:01.70 bitrate=1233.8kbits/s speed=0.02x elapsed=0:01:25.08    \nframe=  104 fps=1.2 q=22.5 size=     256KiB time=00:00:01.70 bitrate=1233.8kbits/s speed=0.0199x elapsed=0:01:25.60    \nframe=  104 fps=1.2 q=22.5 size=     256KiB time=00:00:01.70 bitrate=1233.8kbits/s speed=0.0197x elapsed=0:01:26.10    \nframe=  105 fps=1.2 q=21.2 size=     256KiB time=00:00:01.71 bitrate=1221.8kbits/s speed=0.0198x elapsed=0:01:26.63    \nframe=  106 fps=1.2 q=21.3 size=     256KiB time=00:00:01.73 bitrate=1210.1kbits/s speed=0.0199x elapsed=0:01:27.15    \nframe=  106 fps=1.2 q=21.3 size=     256KiB time=00:00:01.73 bitrate=1210.1kbits/s speed=0.0198x elapsed=0:01:27.68    \nframe=  107 fps=1.2 q=14.6 size=     256KiB time=00:00:01.75 bitrate=1198.6kbits/s speed=0.0198x elapsed=0:01:28.21    \nframe=  108 fps=1.2 q=19.9 size=     512KiB time=00:00:01.76 bitrate=2374.3kbits/s speed=0.0199x elapsed=0:01:28.73    \nframe=  109 fps=1.2 q=21.4 size=     512KiB time=00:00:01.78 bitrate=2352.1kbits/s speed=0.02x elapsed=0:01:29.25    \nframe=  109 fps=1.2 q=21.4 size=     512KiB time=00:00:01.78 bitrate=2352.1kbits/s speed=0.0199x elapsed=0:01:29.78    \nframe=  110 fps=1.2 q=20.9 size=     512KiB time=00:00:01.80 bitrate=2330.4kbits/s speed=0.0199x elapsed=0:01:30.31    \nframe=  110 fps=1.2 q=20.9 size=     512KiB time=00:00:01.80 bitrate=2330.4kbits/s speed=0.0198x elapsed=0:01:30.85    \nframe=  111 fps=1.2 q=21.4 size=     512KiB time=00:00:01.81 bitrate=2309.0kbits/s speed=0.0199x elapsed=0:01:31.37    \nframe=  112 fps=1.2 q=14.7 size=     512KiB time=00:00:01.83 bitrate=2288.0kbits/s speed=0.02x elapsed=0:01:31.89    \nframe=  112 fps=1.2 q=14.7 size=     512KiB time=00:00:01.83 bitrate=2288.0kbits/s speed=0.0198x elapsed=0:01:32.41    \nframe=  113 fps=1.2 q=19.9 size=     512KiB time=00:00:01.85 bitrate=2267.4kbits/s speed=0.0199x elapsed=0:01:32.94    \nframe=  113 fps=1.2 q=19.9 size=     512KiB time=00:00:01.85 bitrate=2267.4kbits/s speed=0.0198x elapsed=0:01:33.48    \nframe=  113 fps=1.2 q=19.9 size=     512KiB time=00:00:01.85 bitrate=2267.4kbits/s speed=0.0197x elapsed=0:01:34.00    \nframe=  114 fps=1.2 q=21.0 size=     512KiB time=00:00:01.86 bitrate=2247.1kbits/s speed=0.0197x elapsed=0:01:34.54    \nframe=  114 fps=1.2 q=21.0 size=     512KiB time=00:00:01.86 bitrate=2247.1kbits/s speed=0.0196x elapsed=0:01:35.06    \nframe=  114 fps=1.2 q=21.0 size=     512KiB time=00:00:01.86 bitrate=2247.1kbits/s speed=0.0195x elapsed=0:01:35.58    \nframe=  115 fps=1.2 q=20.8 size=     512KiB time=00:00:01.88 bitrate=2227.3kbits/s speed=0.0196x elapsed=0:01:36.11    \nframe=  115 fps=1.2 q=20.8 size=     512KiB time=00:00:01.88 bitrate=2227.3kbits/s speed=0.0195x elapsed=0:01:36.65    \nframe=  115 fps=1.2 q=20.8 size=     512KiB time=00:00:01.88 bitrate=2227.3kbits/s speed=0.0194x elapsed=0:01:37.17    \nframe=  116 fps=1.2 q=21.4 size=     512KiB time=00:00:01.90 bitrate=2207.7kbits/s speed=0.0195x elapsed=0:01:37.68    \nframe=  117 fps=1.2 q=14.8 size=     512KiB time=00:00:01.91 bitrate=2188.5kbits/s speed=0.0195x elapsed=0:01:38.21    \nframe=  117 fps=1.2 q=14.8 size=     512KiB time=00:00:01.91 bitrate=2188.5kbits/s speed=0.0194x elapsed=0:01:38.75    \nframe=  118 fps=1.2 q=19.7 size=     512KiB time=00:00:01.93 bitrate=2169.7kbits/s speed=0.0195x elapsed=0:01:39.28    \nframe=  118 fps=1.2 q=19.7 size=     512KiB time=00:00:01.93 bitrate=2169.7kbits/s speed=0.0194x elapsed=0:01:39.83    \nframe=  119 fps=1.2 q=21.5 size=     512KiB time=00:00:01.93 bitrate=2169.7kbits/s speed=0.0192x elapsed=0:01:40.43    \nframe=  119 fps=1.2 q=21.5 size=     512KiB time=00:00:01.95 bitrate=2151.1kbits/s speed=0.0193x elapsed=0:01:41.06    \nframe=  119 fps=1.2 q=21.5 size=     512KiB time=00:00:01.95 bitrate=2151.1kbits/s speed=0.0192x elapsed=0:01:41.64    \nframe=  120 fps=1.2 q=20.7 size=     512KiB time=00:00:01.96 bitrate=2132.9kbits/s speed=0.0192x elapsed=0:01:42.22    \nframe=  120 fps=1.2 q=20.7 size=     512KiB time=00:00:01.96 bitrate=2132.9kbits/s speed=0.0191x elapsed=0:01:42.78    \nframe=  120 fps=1.2 q=20.7 size=     512KiB time=00:00:01.96 bitrate=2132.9kbits/s speed=0.019x elapsed=0:01:43.35    \nframe=  120 fps=1.2 q=20.7 size=     512KiB time=00:00:01.96 bitrate=2132.9kbits/s speed=0.0189x elapsed=0:01:43.96    \nframe=  120 fps=1.1 q=20.7 size=     512KiB time=00:00:01.96 bitrate=2132.9kbits/s speed=0.0188x elapsed=0:01:44.54    \nframe=  121 fps=1.2 q=20.8 size=     512KiB time=00:00:01.98 bitrate=2115.0kbits/s speed=0.0189x elapsed=0:01:45.08    \nframe=  121 fps=1.1 q=20.8 size=     512KiB time=00:00:01.98 bitrate=2115.0kbits/s speed=0.0188x elapsed=0:01:45.62    \nframe=  121 fps=1.1 q=20.8 size=     512KiB time=00:00:01.98 bitrate=2115.0kbits/s speed=0.0187x elapsed=0:01:46.17    \nframe=  121 fps=1.1 q=20.8 size=     512KiB time=00:00:01.98 bitrate=2115.0kbits/s speed=0.0186x elapsed=0:01:46.73    \nframe=  122 fps=1.1 q=14.5 size=     512KiB time=00:00:02.00 bitrate=2097.3kbits/s speed=0.0186x elapsed=0:01:47.27    \nframe=  122 fps=1.1 q=14.5 size=     512KiB time=00:00:02.00 bitrate=2097.3kbits/s speed=0.0186x elapsed=0:01:47.79    \nframe=  123 fps=1.1 q=19.7 size=     512KiB time=00:00:02.01 bitrate=2080.0kbits/s speed=0.0186x elapsed=0:01:48.31    \nframe=  123 fps=1.1 q=19.7 size=     512KiB time=00:00:02.01 bitrate=2080.0kbits/s speed=0.0185x elapsed=0:01:48.87    \nframe=  124 fps=1.1 q=21.0 size=     512KiB time=00:00:02.03 bitrate=2062.9kbits/s speed=0.0186x elapsed=0:01:49.39    \nframe=  124 fps=1.1 q=21.0 size=     512KiB time=00:00:02.03 bitrate=2062.9kbits/s speed=0.0185x elapsed=0:01:49.92    \nframe=  125 fps=1.1 q=21.5 size=     512KiB time=00:00:02.05 bitrate=2046.2kbits/s speed=0.0186x elapsed=0:01:50.43    \nframe=  126 fps=1.1 q=21.6 size=     512KiB time=00:00:02.06 bitrate=2029.7kbits/s speed=0.0186x elapsed=0:01:50.95    \nframe=  126 fps=1.1 q=21.6 size=     512KiB time=00:00:02.06 bitrate=2029.7kbits/s speed=0.0185x elapsed=0:01:51.49    \nframe=  126 fps=1.1 q=21.6 size=     512KiB time=00:00:02.06 bitrate=2029.7kbits/s speed=0.0184x elapsed=0:01:52.04    \nframe=  127 fps=1.1 q=14.8 size=     512KiB time=00:00:02.08 bitrate=2013.4kbits/s speed=0.0185x elapsed=0:01:52.58    \nframe=  128 fps=1.1 q=19.5 size=     512KiB time=00:00:02.10 bitrate=1997.5kbits/s speed=0.0186x elapsed=0:01:53.10    \nframe=  129 fps=1.1 q=21.8 size=     512KiB time=00:00:02.11 bitrate=1981.7kbits/s speed=0.0186x elapsed=0:01:53.62    \nframe=  129 fps=1.1 q=21.8 size=     512KiB time=00:00:02.11 bitrate=1981.7kbits/s speed=0.0185x elapsed=0:01:54.16    \nframe=  129 fps=1.1 q=21.8 size=     512KiB time=00:00:02.11 bitrate=1981.7kbits/s speed=0.0185x elapsed=0:01:54.69    \nframe=  129 fps=1.1 q=21.8 size=     512KiB time=00:00:02.11 bitrate=1981.7kbits/s speed=0.0184x elapsed=0:01:55.21    \nframe=  129 fps=1.1 q=21.8 size=     512KiB time=00:00:02.11 bitrate=1981.7kbits/s speed=0.0183x elapsed=0:01:55.75    \nframe=  130 fps=1.1 q=21.0 size=     512KiB time=00:00:02.13 bitrate=1966.2kbits/s speed=0.0183x elapsed=0:01:56.29    \nframe=  131 fps=1.1 q=21.3 size=     512KiB time=00:00:02.15 bitrate=1951.0kbits/s speed=0.0184x elapsed=0:01:56.82    \nframe=  132 fps=1.1 q=14.3 size=     512KiB time=00:00:02.16 bitrate=1936.0kbits/s speed=0.0185x elapsed=0:01:57.34    \nframe=  132 fps=1.1 q=14.3 size=     512KiB time=00:00:02.16 bitrate=1936.0kbits/s speed=0.0184x elapsed=0:01:57.85    \nframe=  133 fps=1.1 q=19.5 size=     512KiB time=00:00:02.18 bitrate=1921.2kbits/s speed=0.0184x elapsed=0:01:58.37    \nframe=  134 fps=1.1 q=21.6 size=     512KiB time=00:00:02.20 bitrate=1906.7kbits/s speed=0.0185x elapsed=0:01:58.90    \nframe=  134 fps=1.1 q=21.6 size=     512KiB time=00:00:02.20 bitrate=1906.7kbits/s speed=0.0184x elapsed=0:01:59.45    \nframe=  134 fps=1.1 q=21.6 size=     512KiB time=00:00:02.20 bitrate=1906.7kbits/s speed=0.0183x elapsed=0:01:59.96    \nframe=  136 fps=1.1 q=21.6 size=     512KiB time=00:00:02.23 bitrate=1878.2kbits/s speed=0.0185x elapsed=0:02:00.48    \nframe=  136 fps=1.1 q=21.6 size=     512KiB time=00:00:02.23 bitrate=1878.2kbits/s speed=0.0185x elapsed=0:02:01.01    \nframe=  136 fps=1.1 q=21.6 size=     512KiB time=00:00:02.23 bitrate=1878.2kbits/s speed=0.0184x elapsed=0:02:01.54    \nframe=  137 fps=1.1 q=14.5 size=     512KiB time=00:00:02.25 bitrate=1864.3kbits/s speed=0.0184x elapsed=0:02:02.07    \nframe=  138 fps=1.1 q=19.4 size=     512KiB time=00:00:02.26 bitrate=1850.6kbits/s speed=0.0185x elapsed=0:02:02.59    \nframe=  138 fps=1.1 q=19.4 size=     512KiB time=00:00:02.26 bitrate=1850.6kbits/s speed=0.0184x elapsed=0:02:03.14    \nframe=  138 fps=1.1 q=19.4 size=     512KiB time=00:00:02.26 bitrate=1850.6kbits/s speed=0.0183x elapsed=0:02:03.70    \nframe=  138 fps=1.1 q=19.4 size=     512KiB time=00:00:02.26 bitrate=1850.6kbits/s speed=0.0182x elapsed=0:02:04.26    \nframe=  140 fps=1.1 q=21.6 size=     512KiB time=00:00:02.30 bitrate=1823.8kbits/s speed=0.0184x elapsed=0:02:04.81    \nframe=  140 fps=1.1 q=21.6 size=     512KiB time=00:00:02.30 bitrate=1823.8kbits/s speed=0.0183x elapsed=0:02:05.37    \nframe=  140 fps=1.1 q=21.6 size=     512KiB time=00:00:02.30 bitrate=1823.8kbits/s speed=0.0183x elapsed=0:02:05.90    \nframe=  140 fps=1.1 q=21.6 size=     512KiB time=00:00:02.30 bitrate=1823.8kbits/s speed=0.0182x elapsed=0:02:06.47    \nframe=  140 fps=1.1 q=21.6 size=     512KiB time=00:00:02.30 bitrate=1823.8kbits/s speed=0.0181x elapsed=0:02:07.03    \nframe=  141 fps=1.1 q=21.3 size=     512KiB time=00:00:02.31 bitrate=1810.6kbits/s speed=0.0182x elapsed=0:02:07.56    \nframe=  141 fps=1.1 q=21.3 size=     512KiB time=00:00:02.31 bitrate=1810.6kbits/s speed=0.0181x elapsed=0:02:08.09    \nframe=  141 fps=1.1 q=21.3 size=     512KiB time=00:00:02.31 bitrate=1810.6kbits/s speed=0.018x elapsed=0:02:08.60    \nframe=  142 fps=1.1 q=15.0 size=     512KiB time=00:00:02.33 bitrate=1797.7kbits/s speed=0.0181x elapsed=0:02:09.15    \nframe=  142 fps=1.1 q=15.0 size=     512KiB time=00:00:02.33 bitrate=1797.7kbits/s speed=0.018x elapsed=0:02:09.71    \nframe=  142 fps=1.1 q=15.0 size=     512KiB time=00:00:02.33 bitrate=1797.7kbits/s speed=0.0179x elapsed=0:02:10.24    \nframe=  142 fps=1.1 q=15.0 size=     512KiB time=00:00:02.33 bitrate=1797.7kbits/s speed=0.0178x elapsed=0:02:10.79    \nframe=  144 fps=1.1 q=21.7 size=     512KiB time=00:00:02.36 bitrate=1772.4kbits/s speed=0.018x elapsed=0:02:11.31    \nframe=  144 fps=1.1 q=21.7 size=     512KiB time=00:00:02.36 bitrate=1772.4kbits/s speed=0.0179x elapsed=0:02:11.87    \nframe=  144 fps=1.1 q=21.7 size=     512KiB time=00:00:02.36 bitrate=1772.4kbits/s speed=0.0179x elapsed=0:02:12.44    \nframe=  144 fps=1.1 q=21.7 size=     512KiB time=00:00:02.36 bitrate=1772.4kbits/s speed=0.0178x elapsed=0:02:13.04    \nframe=  145 fps=1.1 q=21.5 size=     512KiB time=00:00:02.38 bitrate=1760.0kbits/s speed=0.0178x elapsed=0:02:13.59    \nframe=  146 fps=1.1 q=21.4 size=     512KiB time=00:00:02.38 bitrate=1760.0kbits/s speed=0.0178x elapsed=0:02:14.12    \nframe=  146 fps=1.1 q=21.4 size=     512KiB time=00:00:02.40 bitrate=1747.8kbits/s speed=0.0178x elapsed=0:02:14.66    \nframe=  146 fps=1.1 q=21.4 size=     512KiB time=00:00:02.40 bitrate=1747.8kbits/s speed=0.0178x elapsed=0:02:15.18    \nframe=  146 fps=1.1 q=21.4 size=     512KiB time=00:00:02.40 bitrate=1747.8kbits/s speed=0.0177x elapsed=0:02:15.71    \nframe=  146 fps=1.1 q=21.4 size=     512KiB time=00:00:02.40 bitrate=1747.8kbits/s speed=0.0176x elapsed=0:02:16.23    \nframe=  146 fps=1.1 q=21.4 size=     512KiB time=00:00:02.40 bitrate=1747.8kbits/s speed=0.0176x elapsed=0:02:16.74    \nframe=  147 fps=1.1 q=14.6 size=     512KiB time=00:00:02.41 bitrate=1735.7kbits/s speed=0.0176x elapsed=0:02:17.28    \nframe=  147 fps=1.1 q=14.6 size=     512KiB time=00:00:02.41 bitrate=1735.7kbits/s speed=0.0175x elapsed=0:02:17.84    \nframe=  147 fps=1.1 q=14.6 size=     512KiB time=00:00:02.41 bitrate=1735.7kbits/s speed=0.0175x elapsed=0:02:18.37    \nframe=  147 fps=1.1 q=14.6 size=     512KiB time=00:00:02.41 bitrate=1735.7kbits/s speed=0.0174x elapsed=0:02:18.92    \nframe=  147 fps=1.1 q=14.6 size=     512KiB time=00:00:02.41 bitrate=1735.7kbits/s speed=0.0173x elapsed=0:02:19.44    \nframe=  149 fps=1.1 q=21.4 size=     512KiB time=00:00:02.45 bitrate=1712.1kbits/s speed=0.0175x elapsed=0:02:19.96    \nframe=  149 fps=1.1 q=21.4 size=     512KiB time=00:00:02.45 bitrate=1712.1kbits/s speed=0.0174x elapsed=0:02:20.50    \nframe=  150 fps=1.1 q=21.4 size=     512KiB time=00:00:02.46 bitrate=1700.5kbits/s speed=0.0175x elapsed=0:02:21.02    \nframe=  150 fps=1.1 q=21.4 size=     512KiB time=00:00:02.46 bitrate=1700.5kbits/s speed=0.0174x elapsed=0:02:21.55    \nframe=  150 fps=1.1 q=21.4 size=     512KiB time=00:00:02.46 bitrate=1700.5kbits/s speed=0.0174x elapsed=0:02:22.09    \nframe=  150 fps=1.1 q=21.4 size=     512KiB time=00:00:02.46 bitrate=1700.5kbits/s speed=0.0173x elapsed=0:02:22.66    \nframe=  150 fps=1.0 q=21.4 size=     512KiB time=00:00:02.46 bitrate=1700.5kbits/s speed=0.0172x elapsed=0:02:23.24    \nframe=  150 fps=1.0 q=21.4 size=     512KiB time=00:00:02.46 bitrate=1700.5kbits/s speed=0.0172x elapsed=0:02:23.79    \nframe=  151 fps=1.0 q=21.4 size=     512KiB time=00:00:02.48 bitrate=1689.1kbits/s speed=0.0172x elapsed=0:02:24.34    \nframe=  151 fps=1.0 q=21.4 size=     512KiB time=00:00:02.48 bitrate=1689.1kbits/s speed=0.0171x elapsed=0:02:24.87    \nframe=  152 fps=1.0 q=14.7 size=     512KiB time=00:00:02.50 bitrate=1677.9kbits/s speed=0.0172x elapsed=0:02:25.43    \nframe=  152 fps=1.0 q=14.7 size=     512KiB time=00:00:02.50 bitrate=1677.9kbits/s speed=0.0171x elapsed=0:02:25.97    \nframe=  152 fps=1.0 q=14.7 size=     512KiB time=00:00:02.50 bitrate=1677.9kbits/s speed=0.0171x elapsed=0:02:26.48    \nframe=  152 fps=1.0 q=14.7 size=     512KiB time=00:00:02.50 bitrate=1677.9kbits/s speed=0.017x elapsed=0:02:27.04    \nframe=  153 fps=1.0 q=19.7 size=     512KiB time=00:00:02.51 bitrate=1666.8kbits/s speed=0.0171x elapsed=0:02:27.56    \nframe=  153 fps=1.0 q=19.7 size=     512KiB time=00:00:02.51 bitrate=1666.8kbits/s speed=0.017x elapsed=0:02:28.14    \nframe=  154 fps=1.0 q=21.7 size=     512KiB time=00:00:02.53 bitrate=1655.8kbits/s speed=0.017x elapsed=0:02:28.68    \nframe=  155 fps=1.0 q=21.3 size=     512KiB time=00:00:02.55 bitrate=1645.0kbits/s speed=0.0171x elapsed=0:02:29.23    \nframe=  155 fps=1.0 q=21.3 size=     512KiB time=00:00:02.55 bitrate=1645.0kbits/s speed=0.017x elapsed=0:02:29.79    \nframe=  155 fps=1.0 q=21.3 size=     512KiB time=00:00:02.55 bitrate=1645.0kbits/s speed=0.017x elapsed=0:02:30.36    \nframe=  155 fps=1.0 q=21.3 size=     512KiB time=00:00:02.55 bitrate=1645.0kbits/s speed=0.0169x elapsed=0:02:30.91    \nframe=  155 fps=1.0 q=21.3 size=     512KiB time=00:00:02.55 bitrate=1645.0kbits/s speed=0.0168x elapsed=0:02:31.42    \nframe=  156 fps=1.0 q=21.2 size=     512KiB time=00:00:02.56 bitrate=1634.3kbits/s speed=0.0169x elapsed=0:02:31.94    \nframe=  157 fps=1.0 q=14.5 size=     512KiB time=00:00:02.58 bitrate=1623.7kbits/s speed=0.0169x elapsed=0:02:32.46    \nframe=  157 fps=1.0 q=14.5 size=     512KiB time=00:00:02.58 bitrate=1623.7kbits/s speed=0.0169x elapsed=0:02:33.00    \nframe=  157 fps=1.0 q=14.5 size=     512KiB time=00:00:02.58 bitrate=1623.7kbits/s speed=0.0168x elapsed=0:02:33.57    \nframe=  157 fps=1.0 q=14.5 size=     512KiB time=00:00:02.58 bitrate=1623.7kbits/s speed=0.0168x elapsed=0:02:34.14    \nframe=  157 fps=1.0 q=14.5 size=     512KiB time=00:00:02.58 bitrate=1623.7kbits/s speed=0.0167x elapsed=0:02:34.72    \nframe=  157 fps=1.0 q=14.5 size=     512KiB time=00:00:02.58 bitrate=1623.7kbits/s speed=0.0166x elapsed=0:02:35.25    \nframe=  157 fps=1.0 q=14.5 size=     512KiB time=00:00:02.58 bitrate=1623.7kbits/s speed=0.0166x elapsed=0:02:35.82    \nframe=  157 fps=1.0 q=14.5 size=     512KiB time=00:00:02.58 bitrate=1623.7kbits/s speed=0.0165x elapsed=0:02:36.35    \nframe=  157 fps=1.0 q=14.5 size=     512KiB time=00:00:02.58 bitrate=1623.7kbits/s speed=0.0165x elapsed=0:02:36.93    \nframe=  158 fps=1.0 q=20.0 size=     768KiB time=00:00:02.60 bitrate=2419.9kbits/s speed=0.0165x elapsed=0:02:37.54    \nframe=  158 fps=1.0 q=20.0 size=     768KiB time=00:00:02.60 bitrate=2419.9kbits/s speed=0.0164x elapsed=0:02:38.09    \nframe=  158 fps=1.0 q=20.0 size=     768KiB time=00:00:02.60 bitrate=2419.9kbits/s speed=0.0164x elapsed=0:02:38.68    \nframe=  158 fps=1.0 q=20.0 size=     768KiB time=00:00:02.60 bitrate=2419.9kbits/s speed=0.0163x elapsed=0:02:39.27    \nframe=  158 fps=1.0 q=20.0 size=     768KiB time=00:00:02.60 bitrate=2419.9kbits/s speed=0.0163x elapsed=0:02:39.88    \nframe=  159 fps=1.0 q=21.0 size=     768KiB time=00:00:02.61 bitrate=2404.5kbits/s speed=0.0163x elapsed=0:02:40.40    \nframe=  160 fps=1.0 q=21.4 size=     768KiB time=00:00:02.63 bitrate=2389.3kbits/s speed=0.0164x elapsed=0:02:40.93    \nframe=  160 fps=1.0 q=21.4 size=     768KiB time=00:00:02.63 bitrate=2389.3kbits/s speed=0.0163x elapsed=0:02:41.49    \nframe=  160 fps=1.0 q=21.4 size=     768KiB time=00:00:02.63 bitrate=2389.3kbits/s speed=0.0163x elapsed=0:02:42.02    \nframe=  161 fps=1.0 q=21.1 size=     768KiB time=00:00:02.65 bitrate=2374.3kbits/s speed=0.0163x elapsed=0:02:42.58    \nframe=  161 fps=1.0 q=21.1 size=     768KiB time=00:00:02.65 bitrate=2374.3kbits/s speed=0.0162x elapsed=0:02:43.09    \nframe=  162 fps=1.0 q=14.8 size=     768KiB time=00:00:02.66 bitrate=2359.4kbits/s speed=0.0163x elapsed=0:02:43.62    \nframe=  162 fps=1.0 q=14.8 size=     768KiB time=00:00:02.66 bitrate=2359.4kbits/s speed=0.0162x elapsed=0:02:44.17    \nframe=  163 fps=1.0 q=20.2 size=     768KiB time=00:00:02.68 bitrate=2344.8kbits/s speed=0.0163x elapsed=0:02:44.69    \nframe=  164 fps=1.0 q=21.9 size=     768KiB time=00:00:02.70 bitrate=2330.3kbits/s speed=0.0163x elapsed=0:02:45.23    \nframe=  164 fps=1.0 q=21.9 size=     768KiB time=00:00:02.70 bitrate=2330.3kbits/s speed=0.0163x elapsed=0:02:45.75    \nframe=  165 fps=1.0 q=21.2 size=     768KiB time=00:00:02.71 bitrate=2316.0kbits/s speed=0.0163x elapsed=0:02:46.30    \nframe=  166 fps=1.0 q=21.1 size=     768KiB time=00:00:02.73 bitrate=2301.9kbits/s speed=0.0164x elapsed=0:02:46.82    \nframe=  166 fps=1.0 q=21.1 size=     768KiB time=00:00:02.73 bitrate=2301.9kbits/s speed=0.0163x elapsed=0:02:47.34    \nframe=  166 fps=1.0 q=21.1 size=     768KiB time=00:00:02.73 bitrate=2301.9kbits/s speed=0.0163x elapsed=0:02:47.88    \nframe=  167 fps=1.0 q=14.8 size=     768KiB time=00:00:02.75 bitrate=2287.9kbits/s speed=0.0163x elapsed=0:02:48.42    \nframe=  168 fps=1.0 q=20.1 size=     768KiB time=00:00:02.76 bitrate=2274.1kbits/s speed=0.0164x elapsed=0:02:48.95    \nframe=  169 fps=1.0 q=21.0 size=     768KiB time=00:00:02.78 bitrate=2260.5kbits/s speed=0.0164x elapsed=0:02:49.47    \nframe=  169 fps=1.0 q=21.0 size=     768KiB time=00:00:02.78 bitrate=2260.5kbits/s speed=0.0164x elapsed=0:02:49.99    \nframe=  170 fps=1.0 q=21.1 size=     768KiB time=00:00:02.80 bitrate=2247.1kbits/s speed=0.0164x elapsed=0:02:50.52    \nframe=  170 fps=1.0 q=21.1 size=     768KiB time=00:00:02.80 bitrate=2247.1kbits/s speed=0.0164x elapsed=0:02:51.07    \nframe=  171 fps=1.0 q=20.7 size=     768KiB time=00:00:02.81 bitrate=2233.8kbits/s speed=0.0164x elapsed=0:02:51.61    \nframe=  172 fps=1.0 q=14.5 size=     768KiB time=00:00:02.81 bitrate=2233.8kbits/s speed=0.0164x elapsed=0:02:52.16    \nframe=  172 fps=1.0 q=14.5 size=     768KiB time=00:00:02.83 bitrate=2220.6kbits/s speed=0.0164x elapsed=0:02:52.71    \nframe=  173 fps=1.0 q=20.1 size=     768KiB time=00:00:02.83 bitrate=2220.6kbits/s speed=0.0164x elapsed=0:02:53.25    \nframe=  173 fps=1.0 q=20.1 size=     768KiB time=00:00:02.85 bitrate=2207.7kbits/s speed=0.0164x elapsed=0:02:53.77    \nframe=  174 fps=1.0 q=22.1 size=     768KiB time=00:00:02.86 bitrate=2194.8kbits/s speed=0.0164x elapsed=0:02:54.32    \nframe=  174 fps=1.0 q=22.1 size=     768KiB time=00:00:02.86 bitrate=2194.8kbits/s speed=0.0164x elapsed=0:02:54.83    \nframe=  174 fps=1.0 q=22.1 size=     768KiB time=00:00:02.86 bitrate=2194.8kbits/s speed=0.0163x elapsed=0:02:55.36    \nframe=  176 fps=1.0 q=21.0 size=     768KiB time=00:00:02.90 bitrate=2169.6kbits/s speed=0.0165x elapsed=0:02:55.89    \nframe=  176 fps=1.0 q=21.0 size=     768KiB time=00:00:02.90 bitrate=2169.6kbits/s speed=0.0164x elapsed=0:02:56.41    \nframe=  177 fps=1.0 q=14.8 size=     768KiB time=00:00:02.91 bitrate=2157.2kbits/s speed=0.0165x elapsed=0:02:56.93    \nframe=  177 fps=1.0 q=14.8 size=     768KiB time=00:00:02.91 bitrate=2157.2kbits/s speed=0.0164x elapsed=0:02:57.49    \nframe=  178 fps=1.0 q=19.7 size=     768KiB time=00:00:02.93 bitrate=2144.9kbits/s speed=0.0165x elapsed=0:02:58.01    \nframe=  179 fps=1.0 q=22.1 size=     768KiB time=00:00:02.95 bitrate=2132.8kbits/s speed=0.0165x elapsed=0:02:58.53    \nframe=  179 fps=1.0 q=22.1 size=     768KiB time=00:00:02.95 bitrate=2132.8kbits/s speed=0.0165x elapsed=0:02:59.06    \nframe=  180 fps=1.0 q=20.9 size=     768KiB time=00:00:02.96 bitrate=2120.8kbits/s speed=0.0165x elapsed=0:02:59.59    \nframe=  180 fps=1.0 q=20.9 size=     768KiB time=00:00:02.96 bitrate=2120.8kbits/s speed=0.0165x elapsed=0:03:00.11    \nframe=  181 fps=1.0 q=21.0 size=     768KiB time=00:00:02.98 bitrate=2109.0kbits/s speed=0.0165x elapsed=0:03:00.63    \nframe=  181 fps=1.0 q=21.0 size=     768KiB time=00:00:02.98 bitrate=2109.0kbits/s speed=0.0165x elapsed=0:03:01.16    \nframe=  181 fps=1.0 q=21.0 size=     768KiB time=00:00:02.98 bitrate=2109.0kbits/s speed=0.0164x elapsed=0:03:01.69    \nframe=  182 fps=1.0 q=14.3 size=     768KiB time=00:00:03.00 bitrate=2097.3kbits/s speed=0.0165x elapsed=0:03:02.22    \nframe=  182 fps=1.0 q=14.3 size=     768KiB time=00:00:03.00 bitrate=2097.3kbits/s speed=0.0164x elapsed=0:03:02.76    \nframe=  182 fps=1.0 q=14.3 size=     768KiB time=00:00:03.00 bitrate=2097.3kbits/s speed=0.0164x elapsed=0:03:03.28    \nframe=  182 fps=1.0 q=14.3 size=     768KiB time=00:00:03.00 bitrate=2097.3kbits/s speed=0.0163x elapsed=0:03:03.83    \nframe=  184 fps=1.0 q=21.7 size=     768KiB time=00:00:03.03 bitrate=2074.2kbits/s speed=0.0165x elapsed=0:03:04.34    \nframe=  184 fps=1.0 q=21.7 size=     768KiB time=00:00:03.03 bitrate=2074.2kbits/s speed=0.0164x elapsed=0:03:04.88    \nframe=  185 fps=1.0 q=20.7 size=     768KiB time=00:00:03.05 bitrate=2062.9kbits/s speed=0.0164x elapsed=0:03:05.42    \nframe=  186 fps=1.0 q=22.0 size=     768KiB time=00:00:03.06 bitrate=2051.7kbits/s speed=0.0165x elapsed=0:03:05.94    \nframe=  186 fps=1.0 q=22.0 size=     768KiB time=00:00:03.06 bitrate=2051.7kbits/s speed=0.0164x elapsed=0:03:06.45    \nframe=  188 fps=1.0 q=19.6 size=     768KiB time=00:00:03.10 bitrate=2029.6kbits/s speed=0.0166x elapsed=0:03:06.98    \nframe=  189 fps=1.0 q=22.1 size=     768KiB time=00:00:03.11 bitrate=2018.8kbits/s speed=0.0166x elapsed=0:03:07.50    \nframe=  190 fps=1.0 q=20.8 size=     768KiB time=00:00:03.13 bitrate=2008.0kbits/s speed=0.0167x elapsed=0:03:08.01    \nframe=  190 fps=1.0 q=20.8 size=     768KiB time=00:00:03.13 bitrate=2008.0kbits/s speed=0.0166x elapsed=0:03:08.54    \nframe=  192 fps=1.0 q=14.2 size=     768KiB time=00:00:03.16 bitrate=1986.9kbits/s speed=0.0167x elapsed=0:03:09.08    \nframe=  192 fps=1.0 q=14.2 size=     768KiB time=00:00:03.16 bitrate=1986.9kbits/s speed=0.0167x elapsed=0:03:09.60    \nframe=  194 fps=1.0 q=22.6 size=     768KiB time=00:00:03.20 bitrate=1966.2kbits/s speed=0.0168x elapsed=0:03:10.12    \nframe=  195 fps=1.0 q=21.9 size=     768KiB time=00:00:03.21 bitrate=1956.0kbits/s speed=0.0169x elapsed=0:03:10.64    \nframe=  195 fps=1.0 q=21.9 size=     768KiB time=00:00:03.21 bitrate=1956.0kbits/s speed=0.0168x elapsed=0:03:11.16    \nframe=  196 fps=1.0 q=21.2 size=     768KiB time=00:00:03.23 bitrate=1945.9kbits/s speed=0.0169x elapsed=0:03:11.68    \nframe=  196 fps=1.0 q=21.2 size=     768KiB time=00:00:03.23 bitrate=1945.9kbits/s speed=0.0168x elapsed=0:03:12.22    \nframe=  197 fps=1.0 q=14.4 size=     768KiB time=00:00:03.25 bitrate=1935.9kbits/s speed=0.0169x elapsed=0:03:12.76    \nframe=  197 fps=1.0 q=14.4 size=     768KiB time=00:00:03.25 bitrate=1935.9kbits/s speed=0.0168x elapsed=0:03:13.27    \nframe=  198 fps=1.0 q=20.0 size=     768KiB time=00:00:03.26 bitrate=1926.1kbits/s speed=0.0169x elapsed=0:03:13.80    \nframe=  199 fps=1.0 q=21.8 size=     768KiB time=00:00:03.28 bitrate=1916.3kbits/s speed=0.0169x elapsed=0:03:14.32    \nframe=  199 fps=1.0 q=21.8 size=     768KiB time=00:00:03.28 bitrate=1916.3kbits/s speed=0.0169x elapsed=0:03:14.84    \nframe=  201 fps=1.0 q=21.4 size=     768KiB time=00:00:03.31 bitrate=1897.0kbits/s speed=0.017x elapsed=0:03:15.37    \nframe=  201 fps=1.0 q=21.4 size=     768KiB time=00:00:03.31 bitrate=1897.0kbits/s speed=0.0169x elapsed=0:03:15.90    \nframe=  201 fps=1.0 q=21.4 size=     768KiB time=00:00:03.31 bitrate=1897.0kbits/s speed=0.0169x elapsed=0:03:16.44    \nframe=  201 fps=1.0 q=21.4 size=     768KiB time=00:00:03.31 bitrate=1897.0kbits/s speed=0.0168x elapsed=0:03:16.97    \nframe=  202 fps=1.0 q=14.2 size=     768KiB time=00:00:03.33 bitrate=1887.5kbits/s speed=0.0169x elapsed=0:03:17.48    \nframe=  203 fps=1.0 q=19.8 size=     768KiB time=00:00:03.35 bitrate=1878.2kbits/s speed=0.0169x elapsed=0:03:18.03    \nframe=  204 fps=1.0 q=22.1 size=     768KiB time=00:00:03.36 bitrate=1868.9kbits/s speed=0.017x elapsed=0:03:18.55    \nframe=  205 fps=1.0 q=22.1 size=     768KiB time=00:00:03.38 bitrate=1859.6kbits/s speed=0.017x elapsed=0:03:19.09    \nframe=  205 fps=1.0 q=22.1 size=     768KiB time=00:00:03.38 bitrate=1859.6kbits/s speed=0.0169x elapsed=0:03:19.61    \nframe=  206 fps=1.0 q=21.5 size=     768KiB time=00:00:03.40 bitrate=1850.5kbits/s speed=0.017x elapsed=0:03:20.13    \nframe=  207 fps=1.0 q=14.6 size=     768KiB time=00:00:03.41 bitrate=1841.5kbits/s speed=0.017x elapsed=0:03:20.66    \nframe=  208 fps=1.0 q=20.1 size=    1024KiB time=00:00:03.43 bitrate=2443.4kbits/s speed=0.0171x elapsed=0:03:21.17    \nframe=  210 fps=1.0 q=21.8 size=    1024KiB time=00:00:03.46 bitrate=2419.9kbits/s speed=0.0172x elapsed=0:03:21.73    \nframe=  211 fps=1.0 q=21.3 size=    1024KiB time=00:00:03.48 bitrate=2408.3kbits/s speed=0.0172x elapsed=0:03:22.26    \nframe=  211 fps=1.0 q=21.3 size=    1024KiB time=00:00:03.48 bitrate=2408.3kbits/s speed=0.0172x elapsed=0:03:22.78    \nframe=  211 fps=1.0 q=21.3 size=    1024KiB time=00:00:03.48 bitrate=2408.3kbits/s speed=0.0171x elapsed=0:03:23.33    \nframe=  212 fps=1.0 q=14.8 size=    1024KiB time=00:00:03.50 bitrate=2396.8kbits/s speed=0.0172x elapsed=0:03:23.87    \nframe=  212 fps=1.0 q=14.8 size=    1024KiB time=00:00:03.50 bitrate=2396.8kbits/s speed=0.0171x elapsed=0:03:24.40    \nframe=  212 fps=1.0 q=14.8 size=    1024KiB time=00:00:03.50 bitrate=2396.8kbits/s speed=0.0171x elapsed=0:03:24.91    \nframe=  212 fps=1.0 q=14.8 size=    1024KiB time=00:00:03.50 bitrate=2396.8kbits/s speed=0.017x elapsed=0:03:25.44    \nframe=  212 fps=1.0 q=14.8 size=    1024KiB time=00:00:03.50 bitrate=2396.8kbits/s speed=0.017x elapsed=0:03:26.00    \nframe=  213 fps=1.0 q=20.4 size=    1024KiB time=00:00:03.51 bitrate=2385.5kbits/s speed=0.017x elapsed=0:03:26.56    \nframe=  214 fps=1.0 q=22.0 size=    1024KiB time=00:00:03.53 bitrate=2374.2kbits/s speed=0.0171x elapsed=0:03:27.09    \nframe=  214 fps=1.0 q=22.0 size=    1024KiB time=00:00:03.53 bitrate=2374.2kbits/s speed=0.017x elapsed=0:03:27.61    \nframe=  214 fps=1.0 q=22.0 size=    1024KiB time=00:00:03.53 bitrate=2374.2kbits/s speed=0.017x elapsed=0:03:28.16    \nframe=  215 fps=1.0 q=21.6 size=    1024KiB time=00:00:03.55 bitrate=2363.1kbits/s speed=0.017x elapsed=0:03:28.70    \nframe=  216 fps=1.0 q=20.9 size=    1024KiB time=00:00:03.56 bitrate=2352.0kbits/s speed=0.017x elapsed=0:03:29.21    \nframe=  217 fps=1.0 q=15.1 size=    1024KiB time=00:00:03.58 bitrate=2341.1kbits/s speed=0.0171x elapsed=0:03:29.76    \nframe=  217 fps=1.0 q=15.1 size=    1024KiB time=00:00:03.58 bitrate=2341.1kbits/s speed=0.017x elapsed=0:03:30.32    \nframe=  217 fps=1.0 q=15.1 size=    1024KiB time=00:00:03.58 bitrate=2341.1kbits/s speed=0.017x elapsed=0:03:30.84    \nframe=  218 fps=1.0 q=19.9 size=    1024KiB time=00:00:03.60 bitrate=2330.3kbits/s speed=0.017x elapsed=0:03:31.39    \nframe=  218 fps=1.0 q=19.9 size=    1024KiB time=00:00:03.60 bitrate=2330.3kbits/s speed=0.017x elapsed=0:03:31.90    \nframe=  218 fps=1.0 q=19.9 size=    1024KiB time=00:00:03.60 bitrate=2330.3kbits/s speed=0.0169x elapsed=0:03:32.42    \nframe=  219 fps=1.0 q=21.8 size=    1024KiB time=00:00:03.61 bitrate=2319.5kbits/s speed=0.017x elapsed=0:03:32.96    \nframe=  219 fps=1.0 q=21.8 size=    1024KiB time=00:00:03.61 bitrate=2319.5kbits/s speed=0.0169x elapsed=0:03:33.55    \nframe=  219 fps=1.0 q=21.8 size=    1024KiB time=00:00:03.61 bitrate=2319.5kbits/s speed=0.0169x elapsed=0:03:34.12    \nframe=  219 fps=1.0 q=21.8 size=    1024KiB time=00:00:03.61 bitrate=2319.5kbits/s speed=0.0168x elapsed=0:03:34.73    \nframe=  219 fps=1.0 q=21.8 size=    1024KiB time=00:00:03.61 bitrate=2319.5kbits/s speed=0.0168x elapsed=0:03:35.34    \nframe=  220 fps=1.0 q=21.2 size=    1024KiB time=00:00:03.63 bitrate=2308.9kbits/s speed=0.0168x elapsed=0:03:35.87    \nframe=  220 fps=1.0 q=21.2 size=    1024KiB time=00:00:03.63 bitrate=2308.9kbits/s speed=0.0168x elapsed=0:03:36.41    \nframe=  221 fps=1.0 q=21.9 size=    1024KiB time=00:00:03.65 bitrate=2298.3kbits/s speed=0.0168x elapsed=0:03:36.94    \nframe=  221 fps=1.0 q=21.9 size=    1024KiB time=00:00:03.65 bitrate=2298.3kbits/s speed=0.0168x elapsed=0:03:37.49    \nframe=  221 fps=1.0 q=21.9 size=    1024KiB time=00:00:03.65 bitrate=2298.3kbits/s speed=0.0167x elapsed=0:03:38.07    \nframe=  221 fps=1.0 q=21.9 size=    1024KiB time=00:00:03.65 bitrate=2298.3kbits/s speed=0.0167x elapsed=0:03:38.63    \nframe=  222 fps=1.0 q=14.3 size=    1024KiB time=00:00:03.66 bitrate=2287.9kbits/s speed=0.0167x elapsed=0:03:39.15    \nframe=  223 fps=1.0 q=19.6 size=    1024KiB time=00:00:03.68 bitrate=2277.5kbits/s speed=0.0168x elapsed=0:03:39.67    \nframe=  224 fps=1.0 q=21.2 size=    1024KiB time=00:00:03.70 bitrate=2267.3kbits/s speed=0.0168x elapsed=0:03:40.19    \nframe=  224 fps=1.0 q=21.2 size=    1024KiB time=00:00:03.70 bitrate=2267.3kbits/s speed=0.0168x elapsed=0:03:40.72    \nframe=  225 fps=1.0 q=20.4 size=    1024KiB time=00:00:03.71 bitrate=2257.1kbits/s speed=0.0168x elapsed=0:03:41.25    \nframe=  226 fps=1.0 q=22.0 size=    1024KiB time=00:00:03.73 bitrate=2247.0kbits/s speed=0.0168x elapsed=0:03:41.76    \nframe=  226 fps=1.0 q=22.0 size=    1024KiB time=00:00:03.73 bitrate=2247.0kbits/s speed=0.0168x elapsed=0:03:42.27    \nframe=  226 fps=1.0 q=22.0 size=    1024KiB time=00:00:03.73 bitrate=2247.0kbits/s speed=0.0168x elapsed=0:03:42.80    \nframe=  226 fps=1.0 q=22.0 size=    1024KiB time=00:00:03.73 bitrate=2247.0kbits/s speed=0.0167x elapsed=0:03:43.36    \nframe=  228 fps=1.0 q=21.2 size=    1024KiB time=00:00:03.76 bitrate=2227.2kbits/s speed=0.0168x elapsed=0:03:43.88    \nframe=  229 fps=1.0 q=22.6 size=    1024KiB time=00:00:03.78 bitrate=2217.3kbits/s speed=0.0169x elapsed=0:03:44.39    \nframe=  229 fps=1.0 q=22.6 size=    1024KiB time=00:00:03.78 bitrate=2217.3kbits/s speed=0.0168x elapsed=0:03:44.95    \nframe=  229 fps=1.0 q=22.6 size=    1024KiB time=00:00:03.78 bitrate=2217.3kbits/s speed=0.0168x elapsed=0:03:45.49    \nframe=  231 fps=1.0 q=23.8 size=    1024KiB time=00:00:03.81 bitrate=2198.0kbits/s speed=0.0169x elapsed=0:03:46.03    \nframe=  231 fps=1.0 q=23.8 size=    1024KiB time=00:00:03.81 bitrate=2198.0kbits/s speed=0.0168x elapsed=0:03:46.54    \nframe=  231 fps=1.0 q=23.8 size=    1024KiB time=00:00:03.81 bitrate=2198.0kbits/s speed=0.0168x elapsed=0:03:47.05    \nframe=  231 fps=1.0 q=23.8 size=    1024KiB time=00:00:03.81 bitrate=2198.0kbits/s speed=0.0168x elapsed=0:03:47.57    \nframe=  231 fps=1.0 q=23.8 size=    1024KiB time=00:00:03.81 bitrate=2198.0kbits/s speed=0.0167x elapsed=0:03:48.10    \nframe=  233 fps=1.0 q=21.1 size=    1024KiB time=00:00:03.85 bitrate=2179.0kbits/s speed=0.0168x elapsed=0:03:48.61    \nframe=  233 fps=1.0 q=21.1 size=    1024KiB time=00:00:03.85 bitrate=2179.0kbits/s speed=0.0168x elapsed=0:03:49.13    \nframe=  234 fps=1.0 q=24.8 size=    1024KiB time=00:00:03.86 bitrate=2169.6kbits/s speed=0.0168x elapsed=0:03:49.63    \nframe=  234 fps=1.0 q=24.8 size=    1024KiB time=00:00:03.86 bitrate=2169.6kbits/s speed=0.0168x elapsed=0:03:50.16    \nframe=  235 fps=1.0 q=23.8 size=    1024KiB time=00:00:03.88 bitrate=2160.2kbits/s speed=0.0168x elapsed=0:03:50.71    \nframe=  236 fps=1.0 q=23.7 size=    1024KiB time=00:00:03.90 bitrate=2151.0kbits/s speed=0.0169x elapsed=0:03:51.21    \nframe=  237 fps=1.0 q=15.0 size=    1024KiB time=00:00:03.91 bitrate=2141.9kbits/s speed=0.0169x elapsed=0:03:51.73    \nframe=  237 fps=1.0 q=15.0 size=    1024KiB time=00:00:03.91 bitrate=2141.9kbits/s speed=0.0169x elapsed=0:03:52.26    \nframe=  237 fps=1.0 q=15.0 size=    1024KiB time=00:00:03.91 bitrate=2141.9kbits/s speed=0.0168x elapsed=0:03:52.78    \nframe=  238 fps=1.0 q=21.3 size=    1024KiB time=00:00:03.93 bitrate=2132.8kbits/s speed=0.0169x elapsed=0:03:53.30    \nframe=  238 fps=1.0 q=21.3 size=    1024KiB time=00:00:03.93 bitrate=2132.8kbits/s speed=0.0168x elapsed=0:03:53.83    \nframe=  239 fps=1.0 q=24.3 size=    1024KiB time=00:00:03.95 bitrate=2123.8kbits/s speed=0.0169x elapsed=0:03:54.36    \nframe=  239 fps=1.0 q=24.3 size=    1024KiB time=00:00:03.95 bitrate=2123.8kbits/s speed=0.0168x elapsed=0:03:54.87    \nframe=  240 fps=1.0 q=24.3 size=    1024KiB time=00:00:03.95 bitrate=2123.8kbits/s speed=0.0168x elapsed=0:03:55.38    \nframe=  241 fps=1.0 q=23.6 size=    1024KiB time=00:00:03.98 bitrate=2106.0kbits/s speed=0.0169x elapsed=0:03:55.92    \nframe=  241 fps=1.0 q=23.6 size=    1024KiB time=00:00:03.98 bitrate=2106.0kbits/s speed=0.0168x elapsed=0:03:56.45    \nframe=  242 fps=1.0 q=14.6 size=    1024KiB time=00:00:04.00 bitrate=2097.2kbits/s speed=0.0169x elapsed=0:03:56.97    \nframe=  242 fps=1.0 q=14.6 size=    1024KiB time=00:00:04.00 bitrate=2097.2kbits/s speed=0.0168x elapsed=0:03:57.49    \nframe=  243 fps=1.0 q=20.8 size=    1024KiB time=00:00:04.01 bitrate=2088.5kbits/s speed=0.0169x elapsed=0:03:58.03    \nframe=  244 fps=1.0 q=24.0 size=    1024KiB time=00:00:04.03 bitrate=2079.9kbits/s speed=0.0169x elapsed=0:03:58.55    \nframe=  244 fps=1.0 q=24.0 size=    1024KiB time=00:00:04.03 bitrate=2079.9kbits/s speed=0.0169x elapsed=0:03:59.08    \nframe=  245 fps=1.0 q=23.3 size=    1024KiB time=00:00:04.05 bitrate=2071.3kbits/s speed=0.0169x elapsed=0:03:59.62    \nframe=  245 fps=1.0 q=23.3 size=    1024KiB time=00:00:04.05 bitrate=2071.3kbits/s speed=0.0169x elapsed=0:04:00.18    \nframe=  245 fps=1.0 q=23.3 size=    1024KiB time=00:00:04.05 bitrate=2071.3kbits/s speed=0.0168x elapsed=0:04:00.78    \nframe=  246 fps=1.0 q=23.2 size=    1024KiB time=00:00:04.06 bitrate=2062.9kbits/s speed=0.0169x elapsed=0:04:01.32    \nframe=  246 fps=1.0 q=23.2 size=    1024KiB time=00:00:04.06 bitrate=2062.9kbits/s speed=0.0168x elapsed=0:04:01.86    \nframe=  246 fps=1.0 q=23.2 size=    1024KiB time=00:00:04.06 bitrate=2062.9kbits/s speed=0.0168x elapsed=0:04:02.39    \nframe=  247 fps=1.0 q=12.3 size=    1024KiB time=00:00:04.08 bitrate=2054.4kbits/s speed=0.0168x elapsed=0:04:02.96    \nframe=  247 fps=1.0 q=12.3 size=    1024KiB time=00:00:04.08 bitrate=2054.4kbits/s speed=0.0168x elapsed=0:04:03.50    \nframe=  247 fps=1.0 q=12.3 size=    1024KiB time=00:00:04.08 bitrate=2054.4kbits/s speed=0.0167x elapsed=0:04:04.04    \nframe=  247 fps=1.0 q=12.3 size=    1024KiB time=00:00:04.08 bitrate=2054.4kbits/s speed=0.0167x elapsed=0:04:04.57    \nframe=  249 fps=1.0 q=22.9 size=    1024KiB time=00:00:04.11 bitrate=2037.8kbits/s speed=0.0168x elapsed=0:04:05.09    \nframe=  249 fps=1.0 q=22.9 size=    1024KiB time=00:00:04.11 bitrate=2037.8kbits/s speed=0.0168x elapsed=0:04:05.61    \nframe=  250 fps=1.0 q=22.6 size=    1024KiB time=00:00:04.13 bitrate=2029.6kbits/s speed=0.0168x elapsed=0:04:06.17    \nframe=  251 fps=1.0 q=22.9 size=    1024KiB time=00:00:04.15 bitrate=2021.4kbits/s speed=0.0168x elapsed=0:04:06.72    \nframe=  251 fps=1.0 q=22.9 size=    1024KiB time=00:00:04.15 bitrate=2021.4kbits/s speed=0.0168x elapsed=0:04:07.28    \nframe=  251 fps=1.0 q=22.9 size=    1024KiB time=00:00:04.15 bitrate=2021.4kbits/s speed=0.0167x elapsed=0:04:07.80    \nframe=  251 fps=1.0 q=22.9 size=    1024KiB time=00:00:04.15 bitrate=2021.4kbits/s speed=0.0167x elapsed=0:04:08.33    \nframe=  251 fps=1.0 q=22.9 size=    1024KiB time=00:00:04.15 bitrate=2021.4kbits/s speed=0.0167x elapsed=0:04:08.87    \nframe=  251 fps=1.0 q=22.9 size=    1024KiB time=00:00:04.15 bitrate=2021.4kbits/s speed=0.0166x elapsed=0:04:09.41    \nframe=  251 fps=1.0 q=22.9 size=    1024KiB time=00:00:04.15 bitrate=2021.4kbits/s speed=0.0166x elapsed=0:04:09.97    \nframe=  251 fps=1.0 q=22.9 size=    1024KiB time=00:00:04.15 bitrate=2021.4kbits/s speed=0.0166x elapsed=0:04:10.53    \nframe=  252 fps=1.0 q=13.3 size=    1024KiB time=00:00:04.16 bitrate=2013.4kbits/s speed=0.0166x elapsed=0:04:11.07    \nframe=  252 fps=1.0 q=13.3 size=    1024KiB time=00:00:04.16 bitrate=2013.4kbits/s speed=0.0166x elapsed=0:04:11.62    \nframe=  252 fps=1.0 q=13.3 size=    1024KiB time=00:00:04.16 bitrate=2013.4kbits/s speed=0.0165x elapsed=0:04:12.17    \nframe=  252 fps=1.0 q=13.3 size=    1024KiB time=00:00:04.16 bitrate=2013.4kbits/s speed=0.0165x elapsed=0:04:12.69    \nframe=  254 fps=1.0 q=21.0 size=    1280KiB time=00:00:04.20 bitrate=2496.7kbits/s speed=0.0166x elapsed=0:04:13.22    \nframe=  254 fps=1.0 q=21.0 size=    1280KiB time=00:00:04.20 bitrate=2496.7kbits/s speed=0.0165x elapsed=0:04:13.78    \nframe=  255 fps=1.0 q=21.0 size=    1280KiB time=00:00:04.21 bitrate=2486.8kbits/s speed=0.0166x elapsed=0:04:14.35    \nframe=  255 fps=1.0 q=21.0 size=    1280KiB time=00:00:04.21 bitrate=2486.8kbits/s speed=0.0165x elapsed=0:04:14.89    \nframe=  255 fps=1.0 q=21.0 size=    1280KiB time=00:00:04.21 bitrate=2486.8kbits/s speed=0.0165x elapsed=0:04:15.42    \nframe=  255 fps=1.0 q=21.0 size=    1280KiB time=00:00:04.21 bitrate=2486.8kbits/s speed=0.0165x elapsed=0:04:15.96    \nframe=  255 fps=1.0 q=21.0 size=    1280KiB time=00:00:04.21 bitrate=2486.8kbits/s speed=0.0164x elapsed=0:04:16.54    \nframe=  255 fps=1.0 q=21.0 size=    1280KiB time=00:00:04.21 bitrate=2486.8kbits/s speed=0.0164x elapsed=0:04:17.10    \nframe=  256 fps=1.0 q=21.3 size=    1280KiB time=00:00:04.23 bitrate=2477.0kbits/s speed=0.0164x elapsed=0:04:17.64    \nframe=  256 fps=1.0 q=21.3 size=    1280KiB time=00:00:04.23 bitrate=2477.0kbits/s speed=0.0164x elapsed=0:04:18.21    \nframe=  256 fps=1.0 q=21.3 size=    1280KiB time=00:00:04.23 bitrate=2477.0kbits/s speed=0.0164x elapsed=0:04:18.75    \nframe=  256 fps=1.0 q=21.3 size=    1280KiB time=00:00:04.23 bitrate=2477.0kbits/s speed=0.0163x elapsed=0:04:19.28    \nframe=  257 fps=1.0 q=14.7 size=    1280KiB time=00:00:04.25 bitrate=2467.3kbits/s speed=0.0164x elapsed=0:04:19.79    \nframe=  258 fps=1.0 q=21.0 size=    1280KiB time=00:00:04.26 bitrate=2457.7kbits/s speed=0.0164x elapsed=0:04:20.31    \nframe=  259 fps=1.0 q=23.0 size=    1280KiB time=00:00:04.28 bitrate=2448.1kbits/s speed=0.0164x elapsed=0:04:20.84    \nframe=  261 fps=1.0 q=23.5 size=    1280KiB time=00:00:04.31 bitrate=2429.2kbits/s speed=0.0165x elapsed=0:04:21.37    \nframe=  261 fps=1.0 q=23.5 size=    1280KiB time=00:00:04.31 bitrate=2429.2kbits/s speed=0.0165x elapsed=0:04:21.89    \nframe=  261 fps=1.0 q=23.5 size=    1280KiB time=00:00:04.31 bitrate=2429.2kbits/s speed=0.0165x elapsed=0:04:22.41    \nframe=  261 fps=1.0 q=23.5 size=    1280KiB time=00:00:04.31 bitrate=2429.2kbits/s speed=0.0164x elapsed=0:04:22.97    \nframe=  261 fps=1.0 q=23.5 size=    1280KiB time=00:00:04.31 bitrate=2429.2kbits/s speed=0.0164x elapsed=0:04:23.50    \nframe=  261 fps=1.0 q=23.5 size=    1280KiB time=00:00:04.31 bitrate=2429.2kbits/s speed=0.0163x elapsed=0:04:24.03    \nframe=  261 fps=1.0 q=23.5 size=    1280KiB time=00:00:04.31 bitrate=2429.2kbits/s speed=0.0163x elapsed=0:04:24.64    \nframe=  261 fps=1.0 q=23.5 size=    1280KiB time=00:00:04.31 bitrate=2429.2kbits/s speed=0.0163x elapsed=0:04:25.19    \nframe=  261 fps=1.0 q=23.5 size=    1280KiB time=00:00:04.31 bitrate=2429.2kbits/s speed=0.0162x elapsed=0:04:25.75    \nframe=  261 fps=1.0 q=23.5 size=    1280KiB time=00:00:04.31 bitrate=2429.2kbits/s speed=0.0162x elapsed=0:04:26.32    \nframe=  261 fps=1.0 q=23.5 size=    1280KiB time=00:00:04.31 bitrate=2429.2kbits/s speed=0.0162x elapsed=0:04:26.84    \nframe=  263 fps=1.0 q=22.3 size=    1280KiB time=00:00:04.35 bitrate=2410.6kbits/s speed=0.0163x elapsed=0:04:27.37    \nframe=  263 fps=1.0 q=22.3 size=    1280KiB time=00:00:04.35 bitrate=2410.6kbits/s speed=0.0162x elapsed=0:04:27.92    \nframe=  263 fps=1.0 q=22.3 size=    1280KiB time=00:00:04.35 bitrate=2410.6kbits/s speed=0.0162x elapsed=0:04:28.56    \nframe=  264 fps=1.0 q=25.3 size=    1280KiB time=00:00:04.36 bitrate=2401.4kbits/s speed=0.0162x elapsed=0:04:29.10    \nframe=  265 fps=1.0 q=25.1 size=    1280KiB time=00:00:04.38 bitrate=2392.3kbits/s speed=0.0163x elapsed=0:04:29.63    \nframe=  266 fps=1.0 q=23.7 size=    1280KiB time=00:00:04.40 bitrate=2383.2kbits/s speed=0.0163x elapsed=0:04:30.15    \nframe=  266 fps=1.0 q=23.7 size=    1280KiB time=00:00:04.40 bitrate=2383.2kbits/s speed=0.0163x elapsed=0:04:30.68    \nframe=  267 fps=1.0 q=14.8 size=    1280KiB time=00:00:04.41 bitrate=2374.2kbits/s speed=0.0163x elapsed=0:04:31.24    \nframe=  269 fps=1.0 q=22.7 size=    1280KiB time=00:00:04.45 bitrate=2356.4kbits/s speed=0.0164x elapsed=0:04:31.76    \nframe=  270 fps=1.0 q=23.0 size=    1280KiB time=00:00:04.46 bitrate=2347.6kbits/s speed=0.0164x elapsed=0:04:32.27    \nframe=  270 fps=1.0 q=23.0 size=    1280KiB time=00:00:04.46 bitrate=2347.6kbits/s speed=0.0164x elapsed=0:04:32.80    \nframe=  271 fps=1.0 q=22.7 size=    1280KiB time=00:00:04.48 bitrate=2338.9kbits/s speed=0.0164x elapsed=0:04:33.33    \nframe=  272 fps=1.0 q=14.9 size=    1280KiB time=00:00:04.50 bitrate=2330.2kbits/s speed=0.0164x elapsed=0:04:33.83    \nframe=  273 fps=1.0 q=21.0 size=    1280KiB time=00:00:04.51 bitrate=2321.6kbits/s speed=0.0165x elapsed=0:04:34.36    \nframe=  273 fps=1.0 q=21.0 size=    1280KiB time=00:00:04.51 bitrate=2321.6kbits/s speed=0.0164x elapsed=0:04:34.90    \nframe=  274 fps=1.0 q=23.1 size=    1280KiB time=00:00:04.53 bitrate=2313.1kbits/s speed=0.0165x elapsed=0:04:35.42    \nframe=  274 fps=1.0 q=23.1 size=    1280KiB time=00:00:04.53 bitrate=2313.1kbits/s speed=0.0164x elapsed=0:04:35.94    \nframe=  276 fps=1.0 q=23.5 size=    1280KiB time=00:00:04.56 bitrate=2296.2kbits/s speed=0.0165x elapsed=0:04:36.45    \nframe=  276 fps=1.0 q=23.5 size=    1280KiB time=00:00:04.56 bitrate=2296.2kbits/s speed=0.0165x elapsed=0:04:36.99    \nframe=  277 fps=1.0 q=14.6 size=    1280KiB time=00:00:04.58 bitrate=2287.9kbits/s speed=0.0165x elapsed=0:04:37.53    \nframe=  277 fps=1.0 q=14.6 size=    1280KiB time=00:00:04.58 bitrate=2287.9kbits/s speed=0.0165x elapsed=0:04:38.06    \nframe=  279 fps=1.0 q=22.8 size=    1280KiB time=00:00:04.61 bitrate=2271.4kbits/s speed=0.0166x elapsed=0:04:38.57    \nframe=  280 fps=1.0 q=22.0 size=    1280KiB time=00:00:04.63 bitrate=2263.2kbits/s speed=0.0166x elapsed=0:04:39.13    \nframe=  281 fps=1.0 q=22.5 size=    1280KiB time=00:00:04.65 bitrate=2255.1kbits/s speed=0.0166x elapsed=0:04:39.67    \nframe=  282 fps=1.0 q=14.7 size=    1280KiB time=00:00:04.66 bitrate=2247.0kbits/s speed=0.0167x elapsed=0:04:40.19    \nframe=  283 fps=1.0 q=19.9 size=    1280KiB time=00:00:04.68 bitrate=2239.0kbits/s speed=0.0167x elapsed=0:04:40.70    \nframe=  284 fps=1.0 q=21.9 size=    1280KiB time=00:00:04.70 bitrate=2231.1kbits/s speed=0.0167x elapsed=0:04:41.22    \nframe=  285 fps=1.0 q=21.7 size=    1280KiB time=00:00:04.71 bitrate=2223.2kbits/s speed=0.0167x elapsed=0:04:41.74    \nframe=  286 fps=1.0 q=21.2 size=    1280KiB time=00:00:04.73 bitrate=2215.4kbits/s speed=0.0168x elapsed=0:04:42.26    \nframe=  287 fps=1.0 q=15.1 size=    1280KiB time=00:00:04.75 bitrate=2207.6kbits/s speed=0.0168x elapsed=0:04:42.79    \nframe=  288 fps=1.0 q=20.1 size=    1280KiB time=00:00:04.76 bitrate=2199.9kbits/s speed=0.0168x elapsed=0:04:43.32    \nframe=  289 fps=1.0 q=20.9 size=    1280KiB time=00:00:04.78 bitrate=2192.2kbits/s speed=0.0169x elapsed=0:04:43.84    \nframe=  290 fps=1.0 q=20.3 size=    1280KiB time=00:00:04.80 bitrate=2184.6kbits/s speed=0.0169x elapsed=0:04:44.35    \nframe=  291 fps=1.0 q=20.8 size=    1280KiB time=00:00:04.81 bitrate=2177.0kbits/s speed=0.0169x elapsed=0:04:44.87    \nframe=  292 fps=1.0 q=15.3 size=    1280KiB time=00:00:04.83 bitrate=2169.5kbits/s speed=0.0169x elapsed=0:04:45.39    \nframe=  293 fps=1.0 q=17.8 size=    1280KiB time=00:00:04.85 bitrate=2162.1kbits/s speed=0.017x elapsed=0:04:45.93    \nframe=  293 fps=1.0 q=17.8 size=    1280KiB time=00:00:04.85 bitrate=2162.1kbits/s speed=0.0169x elapsed=0:04:46.45    \nframe=  293 fps=1.0 q=17.8 size=    1280KiB time=00:00:04.85 bitrate=2162.1kbits/s speed=0.0169x elapsed=0:04:46.97    \nframe=  295 fps=1.0 q=19.3 size=    1280KiB time=00:00:04.88 bitrate=2147.3kbits/s speed=0.017x elapsed=0:04:47.49    \nframe=  295 fps=1.0 q=19.3 size=    1280KiB time=00:00:04.88 bitrate=2147.3kbits/s speed=0.017x elapsed=0:04:48.02    \nframe=  296 fps=1.0 q=16.9 size=    1280KiB time=00:00:04.90 bitrate=2140.0kbits/s speed=0.017x elapsed=0:04:48.54    \nframe=  297 fps=1.0 q=17.7 size=    1280KiB time=00:00:04.91 bitrate=2132.8kbits/s speed=0.017x elapsed=0:04:49.07    \nframe=  297 fps=1.0 q=17.7 size=    1280KiB time=00:00:04.91 bitrate=2132.8kbits/s speed=0.017x elapsed=0:04:49.58    \nframe=  299 fps=1.0 q=17.4 size=    1280KiB time=00:00:04.95 bitrate=2118.4kbits/s speed=0.0171x elapsed=0:04:50.11    \n[mp4 @ 0000025eff201200] Starting second pass: moving the moov atom to the beginning of the file\n[out#0/mp4 @ 0000025eff6b4e40] video:1502KiB audio:0KiB subtitle:0KiB other streams:0KiB global headers:2KiB muxing overhead: 0.443205%\nframe=  300 fps=1.0 q=19.0 Lsize=    1509KiB time=00:00:04.96 bitrate=2488.8kbits/s speed=0.0171x elapsed=0:04:50.42    \nx265 [info]: frame I:      2, Avg QP:22.11  kb/s: 9281.04 \nx265 [info]: frame P:     59, Avg QP:15.98  kb/s: 8192.23 \nx265 [info]: frame B:    239, Avg QP:21.70  kb/s: 987.13  \nx265 [info]: Weighted P-Frames: Y:0.0% UV:0.0%\n\nencoded 300 frames in 290.32s (1.03 fps), 2459.42 kb/s, Avg QP:20.57\n",
  "seconds": 290.7674369812012,
  "probe_out": {}
}